<svg fill="none" height="24" viewBox="0 0 24 24" width="24" xmlns="http://www.w3.org/2000/svg"><path d="m15.4 2c.2 1.1-.3 2.2-.9 3s-1.7 1.5-2.8 1.4c-.2-1.1.3-2.1.9-2.9.7-.8 1.8-1.4 2.8-1.5zm3.2 17.4c.5-.8.8-1.3 1.2-2.2-3.1-1.2-3.6-5.6-.5-7.2-.9-1.2-2.2-1.8-3.5-1.8-.9 0-1.5.2-2.1.4-.5.2-.9.3-1.4.3-.6 0-1-.2-1.6-.4s-1.19996-.4-1.89996-.4c-1.4 0-2.9.8-3.8 2.3-1.3 2-1.1 5.9 1 9.1.9 1.2 1.9 2.5 3.2 2.5.6 0 .89996-.2 1.29996-.3.5-.2 1-.4 1.8-.4.9 0 1.3.2 1.8.4.4.2.7.3 1.3.3 1.4 0 2.4-1.5 3.2-2.6z" style="fill-rule:evenodd;clip-rule:evenodd;stroke:#17191c;stroke-width:1.5;stroke-miterlimit:10;stroke-linecap:round;stroke-linejoin:round"/></svg>