<svg height="20" viewBox="0 0 20 20" width="20" xmlns="http://www.w3.org/2000/svg"><path d="m13 2c1.0543909 0 1.9181678.81587733 1.9945144 1.85073759l.0054856.14926241v12c0 1.0543909-.81585 1.9181678-1.8507339 1.9945144l-.1492661.0054856h-6c-1.05436227 0-1.91816517-.81585-1.99451427-1.8507339l-.00548573-.1492661v-12c0-1.05436227.81587733-1.91816517 1.85073759-1.99451427l.14926241-.00548573zm0 1h-6c-.51283143 0-.93550653.38604429-.9932722.88337975l-.0067278.11662025v12c0 .51285.38604429.9355092.88337975.9932725l.11662025.0067275h6c.51285 0 .9355092-.386027.9932725-.8833761l.0067275-.1166239v-12c0-.51283143-.386027-.93550653-.8833761-.9932722zm-2 11c.2761 0 .5.2239.5.5 0 .2454222-.1769086.4496-.4101355.4919429l-.0898645.0080571h-2c-.27614 0-.5-.2239-.5-.5 0-.2454222.17687704-.4496.41012499-.4919429l.08987501-.0080571z" fill="#212121"/></svg>